<?xml version="1.0" encoding="utf-8"?>
<!-- Generator: Adobe Illustrator 26.0.3, SVG Export Plug-In . SVG Version: 6.00 Build 0)  -->
<svg version="1.1" id="Layer_1" xmlns="http://www.w3.org/2000/svg" xmlns:xlink="http://www.w3.org/1999/xlink" x="0px" y="0px"
	 viewBox="0 0 500 500" style="enable-background:new 0 0 500 500;" xml:space="preserve">
<style type="text/css">
	.st0{fill-rule:evenodd;clip-rule:evenodd;fill:#6E9B74;}
</style>
<path class="st0" d="M266.9,100.4c0,9.3,0.5,19.9,0.5,30l0.5,0.5c28.5,3.1,50.5,14.9,63.8,33.4c4.5,6.2,9.8,12.3,11.8,21.1
	c-9.7,5.4-22,7-33.4,10.8c-6.8,2.3-13.2,6.2-21.6,6.4c-5.1-9.1-11.2-17.4-22.1-20.6l-9.3-1c-5.6-1.2-14.5-0.8-19.2,1
	c-4.4,1.7-6.3,5.4-9.3,8.3c0,5.8-0.4,11.3,2,14.7c4.2,6,20.9,7.4,29.5,9.8c22.6,6.3,48.5,10.3,65.3,22.6c11,8.1,20.3,21.8,24.1,36.8
	l0.5,14.2c0.7,3.2,0.9,12.2,0,16.2c-1.1,4.9-2.5,10.2-4.4,14.7c-10.9,25.1-42.7,47.6-77.6,48.6v1c-1.2,1.9-0.5,7-0.5,9.8l-0.5,21.1
	c-8.9,0.1-25.6,1.7-32.4-1c-0.3-0.8-0.4-1.6-0.5-2.5c-1-1.6-0.5-5.8-0.5-8.3l-0.5-19.6l-0.5-0.5c-7.5-0.2-15.2-2.5-21.1-4.4
	c-23.3-7.6-37.8-18.9-49.6-37.8c-4.4-7-10.6-15.4-11.3-25.5l1.5-0.5c3.8-2.8,10.5-1.7,15.7-2.9c7.5-1.9,16.6-2.2,24.6-4.4
	c5.6-1.6,13.9-4.4,20.1-3.4c5.2,16.6,17.9,23.4,35.9,27.5c3.7,0.8,10.3,0.2,13.3-0.5c10.2-2.4,16.6-2.4,19.6-11.8
	c0.4-1.4,1.1-5.6,0.5-7.9c-3.3-11.9-18.8-12.3-30.9-15.7c-22.2-6.2-45.4-10.6-62.9-21.6c-13.5-8.5-31.1-33.4-25.5-58.9
	c1.2-5.5,0-9.9,1.5-14.7c4.4-14.6,13.5-28.2,24.6-36.3c8-5.9,18.1-10.4,28.5-13.8c4.7-1.5,11.9-1.2,15.7-3.9
	c2.3-3.7,1.4-24.6,1.5-30.4h1c1.9-1.2,7-0.5,9.8-0.5C252.4,100.4,259.6,100.2,266.9,100.4z"/>
</svg>
